<svg width="381" height="308" viewBox="0 0 381 308" fill="none" xmlns="http://www.w3.org/2000/svg">
<path d="M271.372 199.602C269.628 204.962 268.692 210.634 267.118 216.062C270.862 216.794 274.776 217.138 278.518 217.76C280.178 215.642 285.454 213.02 287.028 214.608C290.09 206.358 281.71 198.986 274.35 197.68C273.454 198.54 272.418 199.241 271.286 199.752L271.372 199.602Z" fill="#0050C8"/>
<path d="M250.186 213.639C247.046 213.701 243.908 213.427 240.826 212.821C240.742 211.527 239.082 206.103 239.166 204.421C242.967 201.458 247.342 199.32 252.014 198.141C252.977 199.187 254 200.176 255.078 201.103C253.878 205.477 251.972 209.659 250.478 213.947L250.186 213.639Z" fill="#0050C8"/>
<path d="M256.152 186.789C257.092 185.16 258.46 183.822 260.109 182.918C261.757 182.015 263.622 181.582 265.5 181.667C269.33 181.791 272.356 184.707 271.286 188.649C269.46 195.385 257.476 196.909 256.152 186.789Z" fill="#0050C8"/>
<path d="M270.988 157.105C270.261 158.036 269.673 159.068 269.244 160.169C268.015 162.845 266.921 165.582 265.968 168.369C265.46 170.265 265.224 171.049 265.968 171.385C266.778 171.741 267.344 170.763 268.096 169.369C268.75 168.267 270.272 164.447 270.564 163.739C271.444 161.92 272.197 160.042 272.818 158.119C273.166 157.017 273.534 156.255 272.818 155.873C272.164 155.523 271.786 156.097 270.988 157.105Z" fill="#393A4A"/>
<path d="M271.968 188.697C274.24 180.759 267.888 174.519 261.204 176.075C255.736 177.353 253.428 183.107 254.604 188.119C256.758 197.257 267.74 197.659 270.982 191.357C271.043 191.259 271.084 191.15 271.102 191.036C271.12 190.922 271.115 190.805 271.087 190.693C271.059 190.581 271.009 190.476 270.939 190.384C270.869 190.292 270.781 190.215 270.681 190.157C270.581 190.1 270.47 190.063 270.355 190.05C270.241 190.036 270.124 190.046 270.014 190.078C269.903 190.111 269.799 190.166 269.71 190.239C269.621 190.312 269.547 190.403 269.494 190.505C268.945 191.269 268.233 191.901 267.408 192.355C266.584 192.808 265.669 193.072 264.73 193.127C255.624 194.079 254.33 180.385 261.794 178.615C266.994 177.369 271.228 182.615 270.43 188.391C270.389 188.595 270.432 188.807 270.547 188.98C270.663 189.153 270.842 189.273 271.046 189.313C271.25 189.354 271.462 189.312 271.635 189.196C271.808 189.081 271.927 188.901 271.968 188.697Z" fill="#393A4A"/>
<path d="M262.686 157.516C263.314 157.357 263.974 157.383 264.588 157.591C265.201 157.799 265.742 158.18 266.144 158.688C266.944 159.574 267.978 158.964 267.62 157.848C267.462 157.269 267.158 156.739 266.737 156.31C266.316 155.88 265.793 155.566 265.216 155.397C264.639 155.227 264.029 155.208 263.443 155.342C262.857 155.475 262.314 155.756 261.868 156.158C261.096 156.95 261.676 157.8 262.686 157.516Z" fill="#393A4A"/>
<path d="M276.732 161.472C277.236 161.021 277.833 160.687 278.48 160.492C279.128 160.297 279.81 160.246 280.479 160.343C281.148 160.44 281.788 160.682 282.353 161.053C282.919 161.423 283.396 161.913 283.752 162.488C283.847 162.696 284.021 162.859 284.235 162.94C284.45 163.02 284.687 163.012 284.896 162.918C285.105 162.823 285.267 162.649 285.348 162.435C285.429 162.22 285.421 161.982 285.326 161.774C285.015 160.779 284.425 159.894 283.627 159.223C282.828 158.553 281.855 158.125 280.821 157.991C279.787 157.856 278.736 158.021 277.793 158.465C276.85 158.909 276.053 159.613 275.498 160.496C274.982 161.438 275.954 162.19 276.732 161.472Z" fill="#393A4A"/>
<path d="M276.895 170.532C277.13 170.62 277.388 170.639 277.656 170.586C277.923 170.533 278.195 170.409 278.455 170.223C278.714 170.036 278.957 169.79 279.169 169.499C279.382 169.208 279.559 168.876 279.691 168.524C279.824 168.172 279.909 167.807 279.941 167.447C279.974 167.088 279.954 166.743 279.881 166.432C279.809 166.121 279.686 165.849 279.52 165.633C279.354 165.416 279.147 165.26 278.913 165.171C278.678 165.083 278.419 165.065 278.152 165.118C277.884 165.171 277.613 165.294 277.353 165.481C277.093 165.667 276.851 165.913 276.638 166.204C276.426 166.496 276.249 166.827 276.116 167.179C275.984 167.531 275.899 167.897 275.866 168.256C275.834 168.615 275.854 168.96 275.926 169.271C275.999 169.583 276.122 169.854 276.288 170.071C276.454 170.287 276.66 170.444 276.895 170.532Z" fill="#393A4A"/>
<path d="M261.581 166.138C262.055 166.316 262.616 166.205 263.14 165.828C263.664 165.452 264.109 164.841 264.377 164.13C264.645 163.419 264.713 162.666 264.567 162.038C264.421 161.409 264.072 160.955 263.598 160.777C263.124 160.598 262.563 160.71 262.039 161.086C261.514 161.463 261.069 162.073 260.802 162.784C260.534 163.495 260.466 164.248 260.612 164.877C260.758 165.506 261.106 165.959 261.581 166.138Z" fill="#393A4A"/>
<path d="M249.954 58.4075C249.954 58.7426 250.02 59.0745 250.148 59.3841C250.277 59.6937 250.465 59.975 250.702 60.212C250.939 60.449 251.22 60.637 251.53 60.7652C251.839 60.8935 252.171 60.9595 252.506 60.9595C252.841 60.9595 253.173 60.8935 253.483 60.7652C253.792 60.637 254.074 60.449 254.311 60.212C254.548 59.975 254.736 59.6937 254.864 59.3841C254.992 59.0745 255.058 58.7426 255.058 58.4075C255.058 58.0723 254.992 57.7405 254.864 57.4309C254.736 57.1212 254.548 56.8399 254.311 56.6029C254.074 56.366 253.792 56.178 253.483 56.0497C253.173 55.9215 252.841 55.8555 252.506 55.8555C252.171 55.8555 251.839 55.9215 251.53 56.0497C251.22 56.178 250.939 56.366 250.702 56.6029C250.465 56.8399 250.277 57.1212 250.148 57.4309C250.02 57.7405 249.954 58.0723 249.954 58.4075Z" fill="#393A4A"/>
<path d="M266.546 57.1301C266.546 57.807 266.815 58.4561 267.293 58.9347C267.772 59.4133 268.421 59.6821 269.098 59.6821C269.775 59.6821 270.424 59.4133 270.902 58.9347C271.381 58.4561 271.65 57.807 271.65 57.1301C271.65 56.4533 271.381 55.8042 270.902 55.3256C270.424 54.847 269.775 54.5781 269.098 54.5781C268.421 54.5781 267.772 54.847 267.293 55.3256C266.815 55.8042 266.546 56.4533 266.546 57.1301Z" fill="#393A4A"/>
<path d="M172.2 143.256C171.339 139.907 169.991 136.702 168.2 133.744C166.64 130.633 164.803 127.668 162.712 124.886C161.178 123.058 158.13 120.522 155.608 120.47C150.28 120.362 146.408 126.18 143.908 130.89C143.67 131.336 142.342 133.984 141.738 135.424C138.912 141.696 134.738 150.86 139.526 155.738C143.002 159.24 148.808 158.22 151.098 158.18C155.012 158.1 161.298 158.538 166.116 157.108C170.182 155.888 173.138 153.318 173.262 149.016C173.169 147.057 172.812 145.119 172.2 143.256ZM153.4 129.336C153.738 127.758 155.576 127.446 156.038 129.38C156.667 133.377 156.667 137.448 156.038 141.444C155.666 143.372 153.48 143.292 153.186 141.38C152.59 137.381 152.662 133.311 153.4 129.336ZM154.782 150.114C154.256 150.196 153.719 150.115 153.241 149.882C152.763 149.648 152.369 149.274 152.11 148.81C151.851 148.346 151.741 147.813 151.795 147.284C151.848 146.755 152.062 146.256 152.408 145.852C152.754 145.449 153.216 145.161 153.731 145.028C154.245 144.895 154.788 144.923 155.287 145.108C155.785 145.293 156.215 145.626 156.518 146.063C156.821 146.5 156.983 147.019 156.982 147.55C157.027 148.181 156.821 148.804 156.41 149.284C155.998 149.764 155.414 150.063 154.784 150.114H154.782Z" fill="#0050C8"/>
<path d="M170.758 256.705C161.8 241.003 152.6 225.047 153.316 206.817C155.032 162.747 200.818 121.117 247.038 130.733C247.246 130.772 247.43 130.892 247.549 131.067C247.669 131.241 247.714 131.456 247.676 131.665C247.631 131.869 247.508 132.049 247.333 132.164C247.158 132.279 246.945 132.321 246.74 132.281C205.14 124.333 157.776 161.901 155.954 206.919C155.246 224.387 164.58 240.833 173.312 256.021C174.396 257.909 170.388 257.986 160.804 293.858C160.781 293.968 160.735 294.072 160.671 294.164C160.606 294.255 160.523 294.333 160.427 294.391C160.332 294.45 160.225 294.488 160.114 294.504C160.003 294.519 159.89 294.512 159.782 294.483C159.67 294.456 159.566 294.408 159.473 294.341C159.381 294.273 159.303 294.188 159.243 294.091C159.184 293.993 159.145 293.885 159.128 293.772C159.11 293.659 159.116 293.543 159.144 293.432C162.6 280.061 164.828 269.403 170.758 256.705Z" fill="#393A4A"/>
<path d="M329.144 277.246C325.176 291.4 324.59 296.292 322.04 306.184C321.989 306.409 321.851 306.606 321.656 306.729C321.46 306.853 321.224 306.894 320.998 306.844C320.772 306.793 320.576 306.655 320.452 306.459C320.329 306.264 320.287 306.027 320.338 305.802C321.632 299.29 324.926 283.64 326.974 276.056L327.614 275.286C360.378 259.564 383.51 228.916 375.898 193.42C370.258 167.106 350.034 145.56 340.298 143.522C329.186 141.198 319.618 145.996 311.796 154.098C311.645 154.219 311.455 154.282 311.262 154.274C311.068 154.266 310.884 154.188 310.743 154.055C310.603 153.921 310.515 153.741 310.498 153.548C310.48 153.355 310.532 153.163 310.646 153.006C318.996 144.078 328.646 138.784 340.81 141.124C351.928 143.26 372.736 166.054 378.502 192.864C386.29 229.118 363.082 261.222 329.144 277.246Z" fill="#393A4A"/>
<path d="M248.8 120.362C249.247 109.827 252.305 99.5675 257.698 90.5062C257.792 90.3147 257.936 90.152 258.114 90.0352C258.292 89.9183 258.499 89.8517 258.712 89.8422C268.229 89.1479 277.679 87.7231 286.978 85.5802C297.424 83.1342 319.076 76.3982 326.64 69.4842C331.556 64.9922 332.302 58.9182 330.718 52.3962C326.86 36.5162 311.988 30.5962 296.95 26.3382C296.837 26.3118 296.73 26.2627 296.636 26.1938C296.542 26.1249 296.463 26.0377 296.404 25.9374C296.344 25.8372 296.306 25.726 296.291 25.6105C296.276 25.495 296.284 25.3776 296.316 25.2655C296.347 25.1534 296.401 25.0488 296.474 24.9581C296.547 24.8673 296.638 24.7924 296.741 24.7377C296.844 24.683 296.957 24.6497 297.073 24.6398C297.189 24.6299 297.305 24.6437 297.416 24.6802C309.016 27.8402 319.104 30.9162 327.06 39.9202C329.664 42.9493 331.6 46.4937 332.741 50.3218C333.882 54.1499 334.203 58.1757 333.682 62.1362C333.016 65.7217 331.163 68.979 328.422 71.3842C320.496 78.7522 298.664 85.5302 287.582 88.1482C278.388 90.308 269.04 91.747 259.622 92.4522C253.885 102.182 251.094 113.367 251.586 124.652C251.6 124.938 251.522 125.22 251.364 125.458C251.206 125.696 250.975 125.876 250.707 125.973C250.438 126.07 250.145 126.078 249.871 125.996C249.598 125.914 249.357 125.747 249.186 125.518C243.85 118.118 233.838 102.718 231.066 93.9862C219.766 93.4802 205.466 88.6182 198.066 79.4102C188.578 67.6102 191.008 48.9782 213.204 35.9362C217.918 33.2724 222.832 30.9808 227.902 29.0822C228.098 29.0093 228.314 29.0158 228.505 29.1002C228.696 29.1847 228.846 29.3404 228.924 29.5342C228.999 29.7289 228.995 29.945 228.913 30.1367C228.83 30.3283 228.677 30.4803 228.484 30.5602C223.537 32.509 218.759 34.8637 214.2 37.6002C208.3 41.1292 203.223 45.8795 199.31 51.5322C198.476 52.9006 197.77 54.3427 197.2 55.8402C193.752 64.9302 195.532 72.2402 200.048 77.7802C207.274 86.6622 221.266 90.9182 232.026 91.3562C234.8 91.4682 230.562 93.5622 248.8 120.362Z" fill="#393A4A"/>
<path d="M304.682 135.316C309.32 135.666 313.83 136.999 317.914 139.226C320.602 140.5 321.394 140.972 321.87 140.226C322.494 139.258 320.324 137.826 319.104 137.04C314.783 134.427 309.857 132.979 304.81 132.84C303.81 132.864 300.854 133.016 300.854 134.116C300.926 134.86 301.212 134.882 304.682 135.316Z" fill="#393A4A"/>
<path d="M302.3 140.113C304.144 140.677 306.039 141.058 307.958 141.249C309.116 141.357 309.492 140.131 308.468 139.599C306.608 138.688 304.528 138.322 302.468 138.543C301.324 138.755 301.382 139.785 302.3 140.113Z" fill="#393A4A"/>
<path d="M48.3857 147.008C48.3857 147.92 48.7469 148.795 49.3898 149.439C50.0326 150.084 50.9046 150.446 51.8137 150.446C52.7229 150.446 53.5948 150.084 54.2377 149.439C54.8805 148.795 55.2417 147.92 55.2417 147.008C55.2417 146.096 54.8805 145.222 54.2377 144.577C53.5948 143.933 52.7229 143.57 51.8137 143.57C50.9046 143.57 50.0326 143.933 49.3898 144.577C48.7469 145.222 48.3857 146.096 48.3857 147.008Z" fill="#0050C8"/>
<path d="M56.0259 144.873C55.6114 144.303 55.0881 143.821 54.4863 143.455C53.8845 143.089 53.2161 142.846 52.5197 142.74C51.8234 142.634 51.1129 142.667 50.4294 142.838C49.7459 143.008 49.103 143.312 48.5379 143.733C47.9198 144.348 47.4846 145.122 47.2808 145.97C47.077 146.818 47.1126 147.706 47.3836 148.535C47.6545 149.363 48.1502 150.101 48.8155 150.665C49.4807 151.228 50.2894 151.596 51.1515 151.727C52.0135 151.859 52.8951 151.748 53.698 151.408C54.5008 151.068 55.1935 150.511 55.6988 149.801C56.2042 149.09 56.5023 148.253 56.56 147.383C56.6178 146.513 56.4328 145.644 56.0259 144.873ZM53.9419 147.003C53.9249 147.556 53.6934 148.08 53.2963 148.465C52.8993 148.85 52.3679 149.065 51.8149 149.065C51.2618 149.065 50.7304 148.85 50.3334 148.465C49.9363 148.08 49.7048 147.556 49.6879 147.003C49.7042 146.43 49.897 145.877 50.2399 145.419C51.2539 144.263 52.0159 144.035 53.1759 145.131C53.4271 145.372 53.625 145.663 53.757 145.986C53.8889 146.308 53.9519 146.654 53.9419 147.003Z" fill="#393A4A"/>
<path d="M68.9419 143.896C68.5274 143.327 68.0041 142.845 67.4023 142.479C66.8005 142.113 66.1321 141.87 65.4357 141.764C64.7394 141.658 64.0289 141.691 63.3454 141.861C62.662 142.032 62.019 142.336 61.4539 142.756C60.8358 143.371 60.4007 144.146 60.1969 144.994C59.9931 145.841 60.0286 146.729 60.2996 147.558C60.5705 148.387 61.0662 149.124 61.7315 149.688C62.3968 150.252 63.2055 150.62 64.0675 150.751C64.9295 150.882 65.8111 150.771 66.614 150.431C67.4169 150.091 68.1095 149.535 68.6149 148.824C69.1202 148.113 69.4183 147.276 69.4761 146.406C69.5338 145.536 69.3489 144.667 68.9419 143.896ZM66.8579 146.032C66.8409 146.585 66.6094 147.109 66.2124 147.494C65.8153 147.88 65.284 148.095 64.7309 148.095C64.1778 148.095 63.6464 147.88 63.2494 147.494C62.8524 147.109 62.6208 146.585 62.6039 146.032C62.6217 145.46 62.8143 144.907 63.1559 144.448C64.1699 143.292 64.9319 143.064 66.0919 144.16C66.343 144.402 66.5409 144.693 66.6728 145.015C66.8047 145.338 66.8678 145.684 66.8579 146.032Z" fill="#393A4A"/>
<path d="M81.2859 143.232C80.8717 142.662 80.3486 142.181 79.7469 141.815C79.1453 141.449 78.477 141.206 77.7808 141.1C77.0846 140.994 76.3743 141.027 75.691 141.197C75.0077 141.367 74.3649 141.672 73.7999 142.092C73.1815 142.707 72.746 143.481 72.5419 144.329C72.3378 145.177 72.3732 146.065 72.644 146.894C72.9148 147.723 73.4105 148.461 74.0758 149.025C74.7411 149.589 75.5499 149.957 76.4121 150.088C77.2742 150.219 78.1559 150.109 78.9589 149.768C79.7619 149.428 80.4547 148.871 80.96 148.161C81.4653 147.45 81.7633 146.613 81.8209 145.742C81.8784 144.872 81.6932 144.003 81.2859 143.232ZM79.1999 145.368C79.183 145.921 78.9514 146.445 78.5544 146.83C78.1574 147.215 77.626 147.431 77.0729 147.431C76.5198 147.431 75.9885 147.215 75.5914 146.83C75.1944 146.445 74.9629 145.921 74.9459 145.368C74.9626 144.796 75.1562 144.243 75.4999 143.786C76.5139 142.628 77.2739 142.4 78.4339 143.496C78.6851 143.737 78.883 144.029 79.0149 144.351C79.1468 144.673 79.2098 145.02 79.1999 145.368Z" fill="#393A4A"/>
<path d="M115.945 258.771C115.855 258.558 115.685 258.389 115.472 258.298C115.259 258.208 115.019 258.204 114.803 258.287C113.049 258.831 112.621 256.821 113.663 255.717C113.815 255.563 113.926 255.374 113.985 255.166C114.044 254.958 114.049 254.738 114.001 254.528C113.953 254.317 113.852 254.122 113.709 253.96C113.565 253.799 113.383 253.676 113.179 253.603C112.125 253.176 110.979 253.023 109.849 253.156C108.72 253.29 107.642 253.706 106.715 254.367C101.562 257.661 102.21 262.925 106.231 265.515C106.999 266.057 107.876 266.424 108.801 266.589C109.726 266.753 110.676 266.713 111.583 266.469C112.49 266.225 113.333 265.785 114.051 265.179C114.769 264.573 115.345 263.817 115.737 262.963C116.091 262.306 116.28 261.572 116.289 260.825C116.289 260.126 116.173 259.432 115.945 258.771Z" fill="#393A4A"/>
<path d="M15.8175 258.563C12.7995 231.343 10.0755 194.721 10.0755 167.229C10.0755 141.503 6.27547 125.639 33.6435 119.065C44.7715 116.395 56.2575 115.573 67.6775 114.433C92.7075 111.931 117.569 110.551 143.019 109.865C169.141 109.163 185.537 111.225 187.819 137.509C187.828 137.624 187.859 137.736 187.911 137.838C187.963 137.94 188.034 138.032 188.122 138.107C188.209 138.181 188.31 138.238 188.419 138.274C188.528 138.31 188.643 138.324 188.757 138.315C188.872 138.307 188.984 138.276 189.086 138.224C189.189 138.172 189.28 138.1 189.355 138.013C189.43 137.926 189.486 137.825 189.522 137.716C189.558 137.607 189.572 137.492 189.563 137.377C187.409 109.655 170.199 106.659 142.935 107.271C118.135 107.829 92.3015 109.291 67.4215 111.761C55.7515 112.919 44.3435 113.731 33.0055 116.447C3.53147 123.507 7.35747 141.801 7.39947 167.233C7.41947 181.633 8.14947 197.397 9.35547 213.123C11.0715 235.523 12.9675 247.723 14.2475 258.759C14.2601 258.864 14.2933 258.965 14.3451 259.057C14.3969 259.149 14.4663 259.229 14.5494 259.294C14.6325 259.359 14.7275 259.407 14.8292 259.435C14.9308 259.463 15.0369 259.47 15.1415 259.457C15.2454 259.445 15.3457 259.412 15.4364 259.359C15.5272 259.307 15.6065 259.237 15.6696 259.154C15.7327 259.071 15.7783 258.975 15.8037 258.874C15.8291 258.772 15.8338 258.667 15.8175 258.563Z" fill="#393A4A"/>
<path d="M16.3722 259.802C16.8882 264.746 17.7242 270.37 21.0522 274.016C27.6022 281.194 48.2082 277.816 57.6382 276.9C79.6961 274.762 98.9021 272.668 120.814 269.468C162.29 263.41 163.174 260.722 163.526 262.658C163.555 262.769 163.562 262.884 163.545 262.998C163.529 263.111 163.489 263.219 163.43 263.317C163.37 263.415 163.291 263.499 163.198 263.566C163.105 263.633 163 263.68 162.888 263.704C126.842 272.258 94.9421 275.94 57.8882 279.564C46.9362 280.634 26.5362 284.02 19.0462 275.836C14.9482 271.36 14.2242 264.854 13.5582 258.824C13.5225 258.485 13.6167 258.144 13.8219 257.871C14.0271 257.598 14.328 257.413 14.6642 257.352C34.1422 254.094 152.608 241.752 156.374 241.42C156.479 241.412 156.585 241.425 156.685 241.457C156.785 241.49 156.878 241.542 156.958 241.61C157.038 241.679 157.104 241.762 157.152 241.856C157.2 241.95 157.229 242.052 157.237 242.157C157.245 242.263 157.233 242.368 157.2 242.468C157.168 242.569 157.116 242.661 157.047 242.742C156.979 242.822 156.895 242.888 156.801 242.935C156.708 242.983 156.605 243.012 156.5 243.02C148.332 243.764 21.8602 258.922 16.3722 259.802Z" fill="#393A4A"/>
<path d="M12.3298 122.801C-3.85216 135.655 0.343842 154.417 0.929842 174.083C1.41184 190.297 0.581843 195.465 2.20584 215.683C2.91384 224.483 3.87784 233.269 4.41984 242.083C5.24384 255.513 5.98984 274.237 18.7138 280.111C18.8183 280.163 18.9323 280.194 19.0488 280.201C19.1654 280.208 19.2822 280.192 19.3923 280.153C19.5023 280.114 19.6035 280.053 19.6896 279.974C19.7757 279.895 19.8451 279.8 19.8936 279.694C19.9421 279.587 19.9687 279.473 19.9718 279.356C19.9749 279.239 19.9545 279.123 19.9118 279.014C19.8691 278.906 19.8049 278.807 19.7232 278.723C19.6414 278.64 19.5437 278.574 19.4358 278.529C8.03584 273.267 7.78184 253.663 7.05584 241.917C6.51184 233.089 5.59584 224.283 4.88784 215.467C3.26384 195.303 4.08784 190.105 3.60984 174.005C3.07784 155.895 -1.27416 136.135 13.3538 124.039C13.5137 123.903 13.6158 123.712 13.6392 123.503C13.6626 123.295 13.6056 123.085 13.4798 122.917C13.3397 122.754 13.1421 122.651 12.928 122.629C12.714 122.608 12.4998 122.669 12.3298 122.801Z" fill="#393A4A"/>
<path d="M121.664 291.501C117.464 288.065 104.678 285.283 100.18 284.301C100.308 283.515 100.392 282.727 100.52 281.941C100.818 280.251 101.198 278.579 101.542 276.907C101.594 276.683 101.556 276.448 101.437 276.251C101.317 276.054 101.127 275.912 100.904 275.853C100.793 275.823 100.676 275.817 100.561 275.833C100.447 275.849 100.337 275.888 100.238 275.948C100.139 276.007 100.052 276.086 99.9841 276.179C99.9158 276.272 99.867 276.378 99.8403 276.491C99.0491 279.172 98.4292 281.901 97.9843 284.661C93.8723 285.237 76.7063 289.319 75.8463 289.533C74.3763 289.915 72.1983 290.629 71.5083 290.845C71.2826 290.895 71.0852 291.031 70.9579 291.224C70.8307 291.417 70.7834 291.652 70.8263 291.879C70.848 291.991 70.8918 292.097 70.955 292.192C71.0182 292.287 71.0997 292.368 71.1946 292.431C71.2896 292.494 71.3961 292.537 71.508 292.558C71.6199 292.58 71.7349 292.579 71.8463 292.555C73.7763 292.355 75.1103 292.267 76.9523 291.929C83.1403 290.787 92.6043 288.479 95.2043 287.679C96.8043 287.169 98.0323 286.655 98.9463 286.279C104.867 287.699 110.695 289.477 116.4 291.603C117.848 292.203 120.84 293.471 120.952 295.041C120.29 295.957 106.352 299.181 104.19 299.733C96.3303 301.761 87.1903 305.449 79.1323 305.025C74.0943 304.779 63.5803 297.297 62.3323 293.901C61.2643 290.795 62.1943 285.877 63.0123 282.861C63.058 282.656 63.0234 282.442 62.9156 282.262C62.8079 282.082 62.6352 281.951 62.4333 281.895C62.2313 281.839 62.0155 281.862 61.8304 281.96C61.6452 282.059 61.5049 282.224 61.4383 282.423C60.6756 284.728 60.1344 287.1 59.8223 289.507C59.4752 291.381 59.6621 293.315 60.3616 295.088C61.0611 296.861 62.2451 298.401 63.7783 299.533C67.2003 302.807 74.5603 307.441 78.9663 307.689C87.6643 308.155 96.8203 304.405 104.874 302.345C109.22 301.229 114.874 299.999 118.914 298.675C120.888 298.051 123.636 297.575 123.636 294.977C123.578 294.29 123.371 293.623 123.031 293.023C122.691 292.423 122.224 291.904 121.664 291.501Z" fill="#393A4A"/>
<path d="M240.06 211.576C236.622 235.775 270.96 237.033 279.66 217.69C279.719 217.591 279.757 217.481 279.772 217.367C279.786 217.252 279.778 217.137 279.746 217.026C279.714 216.915 279.66 216.812 279.587 216.724C279.513 216.635 279.423 216.562 279.32 216.51C279.112 216.401 278.869 216.378 278.644 216.448C278.419 216.517 278.231 216.672 278.12 216.88C275.785 220.599 272.493 223.622 268.59 225.636C257.844 231.195 243.882 228.65 241.916 215.584C241.72 214.298 241.621 213 241.618 211.7C241.635 211.49 241.569 211.283 241.434 211.122C241.298 210.961 241.106 210.859 240.896 210.84C240.792 210.829 240.687 210.841 240.588 210.873C240.489 210.905 240.397 210.957 240.319 211.026C240.24 211.095 240.177 211.179 240.132 211.274C240.088 211.368 240.063 211.471 240.06 211.576Z" fill="#393A4A"/>
<path d="M247.378 192.466C240.718 192.412 235.316 195.252 230.106 199.452C220.454 191.426 226.478 179.836 234.828 170.51C237.313 167.659 240.015 165.005 242.91 162.57C243.08 162.44 243.192 162.248 243.22 162.036C243.249 161.824 243.192 161.609 243.063 161.439C242.933 161.269 242.741 161.157 242.529 161.128C242.317 161.1 242.102 161.156 241.932 161.286C227.312 170.934 214.69 190.114 228.342 201.46C222.48 209.172 223.468 222.13 234.274 230.06C235.18 230.806 236.31 229.46 235.424 228.734C234.261 227.54 233.191 226.258 232.224 224.9C228.078 219.414 226.238 213.422 228.396 206.9C229.442 203.7 230.312 202.008 236.396 198.184C245.612 192.5 248.266 195.358 248.266 193.334C248.252 193.105 248.153 192.889 247.989 192.729C247.825 192.568 247.607 192.475 247.378 192.466Z" fill="#393A4A"/>
<path d="M313.362 159.133C313.204 158.964 312.986 158.864 312.754 158.856C312.523 158.848 312.298 158.932 312.129 159.09C311.96 159.248 311.86 159.466 311.852 159.697C311.844 159.929 311.928 160.154 312.086 160.323C315.226 164.059 317.583 168.388 319.015 173.053C320.448 177.719 320.927 182.625 320.424 187.479C320.018 192.132 318.287 196.571 315.437 200.271C312.587 203.972 308.737 206.778 304.342 208.359C298.142 200.877 291.502 198.637 282.73 196.029C282.534 195.986 282.329 196.019 282.156 196.12C281.984 196.222 281.855 196.384 281.796 196.576C281.737 196.767 281.752 196.974 281.839 197.155C281.925 197.336 282.076 197.478 282.262 197.553C310.15 207.091 315.156 227.413 282.22 232.783C280.336 233.118 278.432 233.326 276.52 233.407C276.406 233.403 276.292 233.422 276.185 233.462C276.079 233.503 275.981 233.564 275.898 233.642C275.815 233.72 275.748 233.814 275.701 233.918C275.655 234.022 275.629 234.135 275.626 234.249C275.625 234.479 275.713 234.702 275.871 234.869C276.029 235.037 276.246 235.138 276.476 235.151C293.166 236.665 315.01 225.845 305.3 210.845C326.254 203.331 329.034 174.989 313.362 159.133Z" fill="#393A4A"/>
<path d="M240.742 233.102C239.745 236.246 238.921 239.441 238.274 242.674C232.274 273.014 232.774 273.796 232.274 279.346C232.218 279.72 232.31 280.101 232.531 280.408C232.752 280.714 233.084 280.922 233.457 280.987C233.829 281.052 234.212 280.969 234.524 280.756C234.836 280.542 235.052 280.215 235.126 279.844C235.678 277.926 236.26 276.06 236.742 274.122C237.844 269.692 240.708 254.322 241.848 247.61C242.829 242.976 243.327 238.252 243.336 233.514C243.363 233.344 243.356 233.169 243.316 233.001C243.275 232.833 243.202 232.675 243.101 232.535C242.999 232.395 242.871 232.277 242.724 232.186C242.576 232.096 242.413 232.035 242.242 232.008C242.071 231.981 241.897 231.988 241.729 232.029C241.561 232.069 241.402 232.142 241.262 232.243C241.122 232.345 241.004 232.473 240.914 232.621C240.823 232.768 240.763 232.932 240.736 233.102H240.742Z" fill="#0050C8"/>
<path d="M265.926 237.034C265.186 239.28 264.525 241.262 263.883 243.998C263.133 247.198 260.495 264.376 259.417 274.344C258.927 278.862 258.931 279.744 258.735 284.366C258.7 284.556 258.703 284.751 258.745 284.94C258.786 285.129 258.866 285.308 258.978 285.466C259.09 285.624 259.233 285.757 259.398 285.859C259.563 285.96 259.746 286.027 259.938 286.056C260.129 286.085 260.325 286.075 260.512 286.027C260.7 285.979 260.875 285.893 261.029 285.775C261.183 285.658 261.311 285.51 261.407 285.342C261.503 285.174 261.563 284.988 261.585 284.796C263.893 275.542 263.729 275.606 265.798 260.258C266.48 255.216 267.398 250.208 267.968 245.164C268.356 241.748 268.462 238.438 268.522 237.536C268.584 237.189 268.508 236.831 268.309 236.54C268.109 236.249 267.804 236.049 267.458 235.982C267.288 235.948 267.113 235.949 266.943 235.984C266.774 236.019 266.613 236.087 266.47 236.185C266.328 236.283 266.206 236.409 266.112 236.554C266.019 236.7 265.955 236.863 265.926 237.034Z" fill="#0050C8"/>
<path d="M307.066 158.031C307.666 151.579 305.854 145.565 299.832 143.043C300.052 141.668 299.931 140.261 299.477 138.944C299.024 137.628 298.252 136.444 297.232 135.497C297.181 133.123 296.268 130.848 294.663 129.097C293.058 127.346 290.871 126.239 288.51 125.983C286.504 125.989 284.515 126.357 282.64 127.069C276.548 120.043 265.716 125.107 264.006 133.659C256.718 134.299 250.636 141.047 252.306 148.407C250.502 149.708 249.288 151.671 248.929 153.865C248.57 156.06 249.096 158.308 250.392 160.115C249.325 162.496 249.176 165.188 249.974 167.673C243.954 169.571 243.682 177.673 249.116 181.289C248.292 183.92 247.998 186.689 248.248 189.435C248.499 192.181 249.29 194.85 250.576 197.289C248.281 197.462 246.041 198.073 243.976 199.089C241.291 200.095 239.017 201.964 237.51 204.403C236.698 205.275 238.11 206.403 238.828 205.531C239.028 205.369 241.734 203.465 241.934 203.331C245.044 201.488 248.389 200.075 251.878 199.131C252.617 200.018 253.464 200.809 254.4 201.485C251.762 208.371 252.056 208.403 250.358 213.115L246.742 212.925C246.515 212.891 246.284 212.949 246.1 213.085C245.916 213.221 245.793 213.425 245.759 213.652C245.725 213.879 245.783 214.11 245.919 214.294C246.055 214.478 246.259 214.601 246.486 214.635L250.996 215.307C251.226 215.327 251.457 215.274 251.655 215.155C251.854 215.037 252.01 214.859 252.102 214.647C254.18 210.105 255.192 206.545 256.714 202.705C257.877 203.095 259.089 203.317 260.314 203.365C260.782 203.381 262.452 203.165 262.526 202.335C262.652 200.935 259.312 200.613 258.486 200.425C253.086 199.273 248.744 190.889 251.94 181.089C252.043 180.785 252.03 180.454 251.905 180.159C251.78 179.864 251.55 179.626 251.26 179.489C250.534 179.171 249.882 178.706 249.345 178.124C248.807 177.541 248.396 176.854 248.136 176.106C247.877 175.357 247.774 174.563 247.836 173.773C247.897 172.983 248.121 172.214 248.494 171.515C249.122 170.555 250.049 169.828 251.132 169.447C251.215 169.474 251.3 169.492 251.386 169.503C252.19 169.594 252.987 169.742 253.77 169.947C254.103 170.034 254.456 169.989 254.757 169.823C255.057 169.656 255.283 169.381 255.386 169.053C256.899 164.013 258.879 159.125 261.3 154.453C263.307 154.634 265.322 154.218 267.093 153.257C268.864 152.296 270.311 150.834 271.254 149.053C272.528 149.828 273.987 150.243 275.478 150.254C276.969 150.265 278.435 149.872 279.72 149.117C280.426 150.643 281.506 151.966 282.859 152.964C284.212 153.962 285.796 154.603 287.462 154.827C287.46 157.341 288.367 159.77 290.016 161.667C289.264 162.871 288.816 164.24 288.712 165.656C288.607 167.072 288.849 168.492 289.416 169.793C287.416 172.745 285.92 176.327 284.352 179.193C284.248 179.393 284.197 179.615 284.204 179.84C284.211 180.065 284.275 180.284 284.39 180.477C284.505 180.67 284.668 180.831 284.862 180.944C285.057 181.056 285.277 181.117 285.502 181.121C291.834 181.221 292.066 186.907 288.99 188.539C287.827 189.066 286.565 189.338 285.288 189.334C284.011 189.331 282.75 189.053 281.59 188.519C281.306 188.398 280.988 188.38 280.692 188.47C280.397 188.56 280.142 188.752 279.974 189.011C277.548 193.037 274.21 196.437 270.23 198.937C269.958 199.117 269.749 199.377 269.63 199.681C268.016 205.145 266.83 209.229 265.29 216.217C265.249 216.383 265.244 216.556 265.274 216.724C265.304 216.892 265.37 217.052 265.466 217.193C265.562 217.335 265.687 217.454 265.832 217.544C265.978 217.634 266.141 217.692 266.31 217.715C268.958 217.993 272.31 218.115 274.692 218.537C274.915 218.579 275.145 218.531 275.333 218.405C275.521 218.278 275.652 218.082 275.696 217.86C275.741 217.638 275.696 217.407 275.572 217.217C275.448 217.027 275.254 216.895 275.032 216.847C272.706 216.265 270.348 215.818 267.97 215.507C268.97 211.725 270.83 204.681 272.054 200.945C275.872 198.453 279.12 195.181 281.584 191.345C288.784 193.659 294.682 189.367 293.018 183.957C294.015 183.405 294.894 182.661 295.604 181.769C296.314 180.877 296.84 179.853 297.154 178.757C303.6 179.267 309.342 172.655 306.982 166.453C307.578 165.928 308.057 165.284 308.388 164.561C308.719 163.839 308.894 163.055 308.902 162.261C308.91 161.466 308.751 160.679 308.434 159.95C308.118 159.222 307.652 158.568 307.066 158.031Z" fill="#393A4A"/>
<path d="M278.901 200.042C279.593 200.475 280.248 200.966 280.857 201.51C282.37 202.693 283.629 204.169 284.559 205.85C285.468 207.595 286.126 209.459 286.515 211.388C286.715 212.262 286.983 213.07 287.115 213.894C287.112 214.125 287.202 214.348 287.363 214.514C287.524 214.679 287.745 214.774 287.976 214.777C288.208 214.78 288.431 214.691 288.596 214.529C288.762 214.368 288.856 214.147 288.859 213.916C289.146 211.132 288.686 208.322 287.526 205.775C286.366 203.228 284.548 201.036 282.259 199.426C281.364 198.937 280.382 198.629 279.367 198.52C279.163 198.458 278.943 198.478 278.753 198.574C278.562 198.67 278.417 198.837 278.345 199.038C278.288 199.244 278.314 199.466 278.418 199.654C278.522 199.841 278.696 199.981 278.901 200.042Z" fill="#393A4A"/>
<path d="M256.121 52.202C256.163 51.846 256.205 51.498 256.249 51.132C256.235 51.0175 256.243 50.9013 256.274 50.79C256.305 50.6787 256.357 50.5746 256.428 50.4835C256.499 50.3924 256.587 50.3161 256.687 50.2591C256.787 50.202 256.898 50.1653 257.012 50.151C257.127 50.1367 257.243 50.1451 257.354 50.1757C257.466 50.2062 257.57 50.2585 257.661 50.3293C257.752 50.4002 257.828 50.4883 257.885 50.5886C257.942 50.6889 257.979 50.7995 257.993 50.914C258.418 51.9629 258.676 53.0715 258.759 54.2C258.773 54.4325 258.726 54.6645 258.622 54.8731C258.519 55.0818 258.363 55.2599 258.17 55.39C257.977 55.52 257.753 55.5974 257.521 55.6146C257.288 55.6318 257.056 55.5881 256.845 55.488C255.355 54.758 253.817 54.148 252.291 53.448C251.028 52.9842 249.872 52.2699 248.891 51.348C248.699 51.2578 248.55 51.0948 248.478 50.8949C248.405 50.695 248.415 50.4745 248.505 50.282C248.596 50.0894 248.758 49.9406 248.958 49.8682C249.158 49.7958 249.379 49.8058 249.571 49.896C250.829 50.126 251.123 49.84 256.121 52.202Z" fill="#393A4A"/>
<path d="M264.672 50.3872C268.472 48.0012 269.618 46.5072 272.926 46.0412C273.034 46.0018 273.149 45.9841 273.264 45.9891C273.379 45.9941 273.492 46.0218 273.597 46.0704C273.701 46.1191 273.795 46.1878 273.873 46.2727C273.95 46.3576 274.011 46.457 274.05 46.5652C274.089 46.6734 274.107 46.7883 274.102 46.9034C274.097 47.0184 274.07 47.1313 274.021 47.2357C273.972 47.3401 273.903 47.4338 273.819 47.5117C273.734 47.5895 273.634 47.6498 273.526 47.6892C273.326 47.8152 267.77 51.7911 264.762 53.3471C264.592 53.4392 264.403 53.491 264.21 53.4985C264.016 53.506 263.824 53.469 263.647 53.3903C263.47 53.3117 263.314 53.1935 263.19 53.0449C263.066 52.8963 262.978 52.7212 262.932 52.5331C262.784 51.7599 262.77 50.9671 262.89 50.1892C262.853 49.9816 262.899 49.7677 263.018 49.5939C263.138 49.4201 263.321 49.3005 263.528 49.2612C263.738 49.2259 263.952 49.2736 264.127 49.3942C264.302 49.5149 264.423 49.6989 264.464 49.9072C264.55 50.0596 264.62 50.2204 264.672 50.3872Z" fill="#393A4A"/>
<path d="M252.079 68.6158C251.679 61.5578 260.631 65.9878 263.097 65.8658C266.799 65.6818 274.051 60.2217 274.457 66.6178C274.951 74.4178 267.777 70.0178 263.141 70.3178C259.865 70.5358 252.399 74.4598 252.079 68.6158Z" fill="#0050C8"/>
<path d="M251.23 68.667C251.23 75.911 260.966 71.769 263.23 71.631C265.559 71.8 267.876 72.1193 270.164 72.587C274.364 72.937 276.056 70.667 275.78 66.535C275.592 63.7171 274.272 62.5011 272.504 62.2311C269.474 61.7631 265.476 64.4171 263.06 64.5471C261.482 64.6391 256.174 62.3151 253.148 64.0791C252.387 64.5429 251.795 65.2382 251.458 66.0631C251.121 66.8881 251.057 67.7992 251.276 68.663L251.23 68.667ZM252.888 68.573C252.848 68.151 252.895 67.7252 253.027 67.3222C253.159 66.9193 253.372 66.5478 253.654 66.231C255.412 64.7331 260.888 67.281 263.184 67.185C265.596 67.079 268.734 65.2611 271.14 64.9131C272.502 64.7131 273 64.9451 273.096 66.713C273.324 70.483 271.826 70.299 267.778 69.523C264.879 68.6906 261.785 68.8375 258.978 69.941C257.65 70.317 254.726 71.205 253.702 70.289C253.255 69.8257 252.985 69.2207 252.938 68.579L252.888 68.573Z" fill="#393A4A"/>
<path d="M248.314 8.55772C251.368 -1.71028 267.678 -2.30428 269.202 6.15772C273.374 5.42972 277.964 6.75772 278.986 10.8517C287.354 13.2517 287.822 24.9437 278.816 26.2657C277.57 30.3457 272.974 31.3337 268.816 30.4657C268.716 32.9497 268.574 35.7377 268.644 38.2357C268.652 38.3485 268.638 38.4618 268.602 38.569C268.566 38.6763 268.509 38.7753 268.435 38.8605C268.36 38.9457 268.27 39.0153 268.168 39.0652C268.067 39.1152 267.957 39.1446 267.844 39.1517C267.612 39.1603 267.385 39.0794 267.211 38.9257C267.037 38.7719 266.928 38.5572 266.908 38.3257C266.676 35.0777 266.73 32.7497 266.782 29.0397C266.789 28.8749 266.835 28.7141 266.915 28.5696C266.994 28.4252 267.106 28.3009 267.241 28.2064C267.376 28.1119 267.532 28.0498 267.695 28.0247C267.858 27.9996 268.024 28.0123 268.182 28.0617C271.57 29.0457 276.022 28.4997 276.52 24.9077C276.567 24.6201 276.71 24.357 276.926 24.1618C277.143 23.9666 277.419 23.8509 277.71 23.8337C284.82 23.3237 284.126 14.5017 277.626 13.2557C277.35 13.207 277.097 13.0705 276.906 12.8665C276.714 12.6625 276.593 12.4019 276.562 12.1237C276.06 8.64773 271.628 8.02172 268.394 9.12372C268.185 9.19597 267.962 9.21477 267.745 9.17838C267.527 9.142 267.322 9.0516 267.149 8.91547C266.975 8.77934 266.838 8.60183 266.751 8.39921C266.664 8.19659 266.629 7.97533 266.65 7.75572C266.898 4.32572 263.338 2.83972 259.97 2.97572C255.114 3.17572 250.408 6.75372 250.654 11.5757C250.664 11.8824 250.569 12.1834 250.386 12.4294C250.202 12.6754 249.941 12.8518 249.644 12.9296C249.347 13.0075 249.033 12.9822 248.752 12.858C248.472 12.7337 248.242 12.5178 248.1 12.2457C245.672 7.37772 238.918 14.3397 243.208 18.1517C243.436 18.3487 243.59 18.618 243.644 18.9147C243.698 19.2113 243.649 19.5176 243.505 19.7824C243.361 20.0473 243.13 20.2547 242.851 20.3703C242.573 20.4859 242.263 20.5026 241.974 20.4177C241.274 20.2622 240.544 20.3061 239.867 20.5444C239.19 20.7826 238.594 21.2057 238.146 21.7657C235.146 24.9997 237.038 29.4997 241.464 30.2617C244.02 30.6107 246.623 30.2047 248.952 29.0937C249.112 29.0153 249.289 28.9778 249.467 28.9848C249.645 28.9918 249.818 29.043 249.972 29.1337C250.916 29.7137 250.146 30.2957 250.772 39.1617C250.787 39.3702 250.72 39.5763 250.583 39.7348C250.447 39.8933 250.253 39.9911 250.045 40.0067C249.836 40.0224 249.63 39.9546 249.472 39.8182C249.313 39.6819 249.215 39.4882 249.2 39.2797C249.11 38.5057 248.58 33.3757 248.476 31.6097C245.544 32.8646 242.271 33.0764 239.202 32.2097C238.01 31.8111 236.938 31.1177 236.086 30.1939C235.234 29.2702 234.629 28.146 234.327 26.9259C234.026 25.7057 234.037 24.4292 234.361 23.2148C234.685 22.0005 235.311 20.8876 236.18 19.9797C237.109 18.9385 238.322 18.1907 239.67 17.8277C237.096 12.3317 243.726 5.62972 248.314 8.55772Z" fill="#0050C8"/>
<path d="M259.034 28.3441C258.287 29.0888 257.342 29.6026 256.312 29.8241C255.788 29.8741 254.142 29.9041 254.056 29.0241C253.978 28.6241 255.43 27.5701 255.63 27.4341C256.454 27.0019 257.202 26.4378 257.844 25.7641C258.048 25.5501 258.319 25.411 258.612 25.3689C258.905 25.3268 259.203 25.3843 259.46 25.5321C260.518 26.1321 261.042 26.2861 261.672 26.6121C262.836 27.2121 263.436 27.4481 263.374 28.1561C263.286 29.1281 261.42 29.1321 260.574 28.9161C260.041 28.7838 259.524 28.5919 259.034 28.3441Z" fill="#0050C8"/>
<path d="M251.2 19.4312C252.724 17.5332 253.97 16.3092 256.306 16.7172C258.01 16.9992 258.29 17.3932 258.774 16.7692C259.412 15.9432 257.902 14.7212 257.114 14.3252C256.397 14.0305 255.623 13.901 254.85 13.9463C254.076 13.9917 253.323 14.2107 252.646 14.5872C251.296 15.2292 249.372 17.0532 249.372 18.2992C249.172 19.1972 249.108 20.1992 249.796 20.3972C250.45 20.5852 250.658 20.0992 251.2 19.4312Z" fill="#0050C8"/>
<path d="M267.714 16.28C267.993 16.4782 268.26 16.6919 268.514 16.92C268.684 17.03 268.896 17.12 269.066 17.224C270.036 17.9074 270.742 18.9028 271.066 20.044C271.194 20.386 271.448 20.628 271.576 20.982C271.579 21.0961 271.605 21.2084 271.652 21.3126C271.698 21.4167 271.765 21.5106 271.848 21.5888C271.931 21.6671 272.029 21.7281 272.136 21.7685C272.242 21.8088 272.356 21.8277 272.47 21.824C272.7 21.8112 272.917 21.7104 273.075 21.5426C273.233 21.3747 273.321 21.1526 273.32 20.922C273.563 20.1483 273.588 19.3228 273.393 18.5358C273.198 17.7488 272.79 17.0306 272.214 16.46C271.499 15.5075 270.478 14.8308 269.322 14.544C268.835 14.4913 268.343 14.5403 267.876 14.688C267.772 14.6773 267.666 14.6874 267.565 14.7176C267.465 14.7477 267.371 14.7974 267.29 14.8638C267.125 14.9979 267.021 15.1918 266.999 15.403C266.989 15.5075 266.999 15.6131 267.029 15.7137C267.059 15.8144 267.109 15.9081 267.175 15.9895C267.241 16.071 267.323 16.1385 267.416 16.1884C267.508 16.2382 267.61 16.2693 267.714 16.28Z" fill="#0050C8"/>
<path d="M255 35.7426C254.999 37.1392 255.085 38.5345 255.256 39.9206C255.548 40.7206 255.828 41.9006 256.656 41.8486C257.484 41.7966 257.782 40.1506 257.804 39.9486C257.865 38.4656 257.766 36.9803 257.508 35.5186C257.456 35.3186 256.908 33.8066 256.146 33.8526C255.484 33.8946 255.042 35.5206 255 35.7426Z" fill="#0050C8"/>
<path d="M260.183 36.2381C260.031 37.8381 259.999 41.2901 261.583 41.1821C262.307 41.1341 262.783 39.5821 262.783 39.1381C262.841 38.0215 262.841 36.9027 262.783 35.7861C262.729 35.5861 262.265 34.1581 261.635 34.1181C260.927 34.0761 260.183 35.4661 260.183 36.2381Z" fill="#0050C8"/>
<path d="M268.776 42.2029C273.32 38.3489 272.266 38.3389 275.242 40.7669L275.712 39.9869C275.784 39.8654 275.884 39.7626 276.003 39.6866C276.122 39.6106 276.258 39.5637 276.398 39.5495C276.539 39.5353 276.681 39.5542 276.813 39.6049C276.945 39.6555 277.063 39.7363 277.158 39.8409C277.705 40.4494 278.216 41.0884 278.69 41.7549C281.115 44.4432 282.864 47.6702 283.794 51.1689C285.176 54.6376 285.701 58.3881 285.326 62.1029C283.106 81.2009 253.472 85.4889 241.926 72.1629C238.908 68.6729 238.098 63.6089 238.098 59.0129C237.957 54.9987 238.804 51.0112 240.564 47.4009C241.429 45.5584 242.439 43.7881 243.586 42.1069C243.704 41.935 243.861 41.7938 244.044 41.695C244.227 41.5962 244.431 41.5427 244.639 41.539C244.847 41.5353 245.053 41.5815 245.24 41.6736C245.427 41.7658 245.589 41.9014 245.712 42.0689C246.336 42.8708 247.018 43.6249 247.754 44.3249C248.768 43.3778 249.836 42.4916 250.954 41.6709C251.205 41.4832 251.515 41.3925 251.828 41.4157C252.14 41.4389 252.434 41.5743 252.654 41.7969L254.952 44.1049L257.632 41.9489C257.887 41.7496 258.207 41.6526 258.53 41.6771C258.852 41.7015 259.154 41.8455 259.376 42.0809C259.881 42.6406 260.421 43.167 260.994 43.6569C262.17 42.4569 263.256 41.3909 264.524 40.3009C264.727 40.121 264.984 40.015 265.255 40.0001C265.525 39.9852 265.793 40.0623 266.014 40.2189C266.692 40.7189 268.564 42.0429 268.776 42.2029ZM272.86 41.4709C272.69 41.6309 272.478 41.7949 272.308 41.9589C269.908 44.1929 269.334 45.2489 268.266 44.6109C267.49 44.1609 266.122 43.2469 265.466 42.7749C263.776 44.3589 263.82 44.4149 261.978 46.3129C261.75 46.542 261.445 46.6778 261.123 46.6937C260.8 46.7096 260.483 46.6045 260.234 46.3989C259.724 45.9729 259.088 45.4249 258.32 44.7229L255.638 46.9229C255.39 47.1112 255.083 47.2056 254.772 47.1895C254.461 47.1734 254.166 47.0478 253.938 46.8349L251.64 44.5009C250.788 45.1629 249.656 46.2169 248.578 47.1269C248.333 47.3331 248.022 47.4446 247.702 47.4413C247.382 47.438 247.073 47.3201 246.832 47.1089C246.124 46.497 245.456 45.8403 244.832 45.1429C244.312 45.9549 243.922 46.8309 242.962 48.6569C241.409 51.8759 240.664 55.4251 240.792 58.9969C240.834 63.0549 241.334 67.3549 243.982 70.3969C254.752 82.8029 285.4 78.2029 282.9 56.8029C282.37 53.3542 281.383 49.9913 279.966 46.8029C279.446 45.7706 278.833 44.7872 278.136 43.8649V43.8429C278.136 43.8429 278.136 43.8189 278.094 43.8069V43.7709C277.458 42.9369 277.214 42.6409 276.694 42.0269L276.354 42.6669C276.294 42.7841 276.209 42.8871 276.106 42.9689C276.002 43.0506 275.882 43.1093 275.754 43.1409C275.086 43.2849 274.846 42.9229 272.86 41.4689V41.4709Z" fill="#393A4A"/>
<path d="M109.624 181.963C108.358 178.387 106.598 178.795 105.924 178.457C102.512 180.871 101.436 187.819 102.308 192.275C102.598 193.985 104.328 196.675 106.01 196.337C110.15 195.541 111.334 186.461 109.624 181.963Z" fill="#393A4A"/>
<path d="M158.762 176.714C158.997 176.444 159.119 176.093 159.102 175.736C158.732 170.936 158.702 164.41 158.422 161.178C158.399 160.852 158.255 160.547 158.019 160.322C157.782 160.097 157.47 159.969 157.144 159.962C147.602 159.624 134.882 158.962 134.396 149.418C134.477 149.336 134.54 149.239 134.582 149.132C134.624 149.025 134.643 148.911 134.639 148.796C134.635 148.682 134.607 148.569 134.558 148.465C134.509 148.362 134.439 148.269 134.352 148.194C134.296 147.889 134.13 147.615 133.885 147.424C133.64 147.233 133.334 147.139 133.024 147.16C72.8482 151.146 91.0682 149.704 38.9622 153.36C38.6582 142.744 50.0002 141.4 60.5742 140.652C66.6562 140.212 117.07 137.222 122.558 136.966C126.174 136.796 129.79 136.716 133.406 136.878C133.596 136.858 133.772 136.772 133.904 136.634C134.035 136.496 134.113 136.316 134.123 136.125C134.134 135.935 134.076 135.748 133.96 135.596C133.844 135.445 133.679 135.34 133.492 135.3C124.347 134.873 115.185 134.978 106.052 135.614C98.4362 135.95 67.9762 137.478 60.3602 138.014C46.8262 138.976 35.2902 141.358 36.4102 154.946C36.428 155.164 36.501 155.375 36.6224 155.557C36.7438 155.74 36.9096 155.889 37.1042 155.99C37.8022 175.7 39.1622 190.504 41.0042 209.216C41.7642 216.298 41.5202 226.28 46.5762 231.846C52.6022 238.404 67.1002 236.646 75.9302 235.738C143.368 228.818 143.564 228.864 149.062 227.714C149.262 227.673 149.449 227.587 149.61 227.463C149.771 227.338 149.902 227.179 149.992 226.996C150.083 226.814 150.13 226.613 150.131 226.41C150.132 226.206 150.087 226.005 149.998 225.822C142 209.68 147.45 188.852 158.762 176.714ZM87.5462 190.286C86.6442 190.6 85.7842 190.952 84.9182 191.286C85.3182 199.73 85.2502 198.05 84.5182 202.524C84.518 202.713 84.4803 202.9 84.4074 203.075C84.3344 203.249 84.2277 203.408 84.0933 203.541C83.9589 203.674 83.7995 203.779 83.6242 203.85C83.449 203.921 83.2614 203.957 83.0722 203.956C82.6914 203.952 82.3272 203.799 82.0571 203.53C81.7871 203.262 81.6325 202.899 81.6262 202.518C81.1082 199.456 81.0882 201.952 80.5322 192.74C77.5102 193.6 74.4362 194.296 71.4162 195.086C71.0171 195.187 70.5978 195.175 70.205 195.052C69.8122 194.928 69.4614 194.698 69.1918 194.387C68.9221 194.076 68.7442 193.696 68.6779 193.29C68.6116 192.883 68.6595 192.466 68.8162 192.086C73.8782 180.044 72.4282 183.392 75.0702 178.686C75.1881 178.356 75.4311 178.087 75.7464 177.936C76.0618 177.785 76.4241 177.764 76.7546 177.878C77.0851 177.992 77.3572 178.233 77.5118 178.546C77.6664 178.86 77.691 179.222 77.5802 179.554C77.1147 183.055 76.1101 186.464 74.6022 189.658C76.4902 189.148 78.3762 188.646 80.2842 188.258C79.9922 182.3 79.9122 182.448 80.6842 178.658C80.6781 178.309 80.8079 177.972 81.0461 177.718C81.2843 177.464 81.6122 177.312 81.9602 177.296C82.1334 177.287 82.3066 177.314 82.4694 177.373C82.6322 177.433 82.7815 177.525 82.9084 177.643C83.0353 177.761 83.1373 177.903 83.2084 178.061C83.2795 178.22 83.3182 178.39 83.3222 178.564C84.2895 181.488 84.7627 184.552 84.7222 187.632C85.4522 187.574 86.1862 187.528 86.9222 187.468C87.1119 187.412 87.3112 187.395 87.5075 187.42C87.7039 187.444 87.893 187.509 88.0631 187.61C88.2332 187.711 88.3806 187.846 88.496 188.007C88.6115 188.168 88.6925 188.35 88.7339 188.544C88.7754 188.737 88.7764 188.937 88.7369 189.131C88.6975 189.325 88.6184 189.509 88.5046 189.67C88.3909 189.832 88.2449 189.969 88.0758 190.072C87.9068 190.174 87.7183 190.241 87.5222 190.268L87.5462 190.286ZM106.902 200.686C102.514 201.562 98.7602 197.372 97.9682 193.1C96.6462 186.164 99.0462 176.974 105.968 175.448C106.196 175.377 106.439 175.369 106.672 175.425C106.904 175.482 107.116 175.6 107.286 175.768C117.576 176.632 116.97 198.616 106.902 200.688V200.686ZM136.128 184.582L135.276 184.998C135.357 187.603 135.244 190.21 134.938 192.798C134.492 195.498 134.066 197.598 132.512 197.474C131.25 197.376 130.896 196.028 130.768 192.368C130.666 190.484 130.754 188.598 130.794 186.71C128.259 187.391 125.677 187.881 123.068 188.174C122.7 188.216 122.328 188.166 121.985 188.026C121.642 187.886 121.339 187.662 121.106 187.375C120.873 187.087 120.716 186.745 120.65 186.381C120.584 186.016 120.611 185.641 120.728 185.29C121.648 181.819 122.784 178.409 124.128 175.08C124.928 173.368 125.328 172.06 126.596 172.352C127.796 172.638 127.812 174.012 127.446 177.108C127.153 179.194 126.669 181.25 126 183.248C127.6 182.938 129.212 182.574 130.818 182.294C130.771 180.318 130.852 178.341 131.062 176.376C131.44 173.612 131.802 172.376 132.976 172.376C134.15 172.376 134.342 173.438 134.764 175.358C135.201 177.484 135.367 179.658 135.258 181.826H135.316C135.686 181.723 136.081 181.77 136.416 181.957C136.751 182.145 136.998 182.457 137.104 182.826C137.156 183.005 137.171 183.193 137.15 183.379C137.129 183.564 137.072 183.744 136.981 183.907C136.89 184.071 136.768 184.214 136.622 184.33C136.476 184.447 136.308 184.533 136.128 184.584V184.582Z" fill="#393A4A"/>
</svg>
